<?xml version="1.0" encoding="UTF-8" standalone="no"?>
<svg
   width="100%"
   height="100%"
   viewBox="0 0 1107 251"
   version="1.1"
   xml:space="preserve"
   style="fill-rule:evenodd;clip-rule:evenodd;stroke-linejoin:round;stroke-miterlimit:2;"
   id="svg7"
   sodipodi:docname="hades_logo_colored.svg"
   inkscape:version="1.4.2 (ebf0e940d0, 2025-05-08)"
   xmlns:inkscape="http://www.inkscape.org/namespaces/inkscape"
   xmlns:sodipodi="http://sodipodi.sourceforge.net/DTD/sodipodi-0.dtd"
   xmlns="http://www.w3.org/2000/svg"
   xmlns:svg="http://www.w3.org/2000/svg"><defs
   id="defs7">
        
    </defs><sodipodi:namedview
   id="namedview7"
   pagecolor="#ffffff"
   bordercolor="#000000"
   borderopacity="0.25"
   inkscape:showpageshadow="2"
   inkscape:pageopacity="0.0"
   inkscape:pagecheckerboard="0"
   inkscape:deskcolor="#d1d1d1"
   inkscape:zoom="1.5862692"
   inkscape:cx="553.8152"
   inkscape:cy="125.45159"
   inkscape:window-width="3834"
   inkscape:window-height="2115"
   inkscape:window-x="1920"
   inkscape:window-y="39"
   inkscape:window-maximized="1"
   inkscape:current-layer="svg7" />
    <g
   transform="matrix(1.0027,0,0,3.68833,-85.8423,-11678.2)"
   id="g1">
        <path
   d="m 420.619,3166.69 h 0.007 v 7.03 h 29.088 v 6.77 h -0.041 c 0.041,0.16 0.041,0.32 0.041,0.48 0,2.26 -2.451,4.37 -6.69,6.13 28.465,3.58 48.245,11.42 48.245,20.51 v 26.49 h -24.933 v -26.49 c 0,-7.89 -21.234,-14.43 -49.034,-15.63 h -0.042 c -2.95,-0.12 -6.025,-0.19 -9.1,-0.19 -3.075,0 -6.15,0.07 -9.1,0.19 h -0.042 c -27.8,1.2 -49.034,7.74 -49.034,15.63 v 26.49 h -24.933 v -26.49 c 0,-9.09 19.739,-16.93 48.245,-20.51 -4.239,-1.76 -6.69,-3.87 -6.69,-6.13 0,-0.16 0,-0.32 0.041,-0.48 h -0.041 v -6.77 h 29.088 v -7.03 h 0.008 v -0.4 h 24.917 z m -12.127,18.32 c 9.184,0 16.622,-2.02 16.622,-4.52 h -33.243 c 0,2.46 7.272,4.48 16.289,4.52 z m 20.446,29.21 c 0,3.12 -9.304,5.65 -20.778,5.65 -11.473,0 -20.777,-2.53 -20.777,-5.65 0,-3.12 9.304,-5.65 20.777,-5.65 11.474,0 20.778,2.53 20.778,5.65 z"
   id="path1"
   sodipodi:nodetypes="ccccccscsccsccsccsccscscccccccccscccssssss"
   style="fill:#d9984d;fill-opacity:1" />
    </g>
    <path
   d="M 310.92007,27.526688 V 1.5977277 h 0.008 v -1.475332 h 24.98427 v 1.475332 h 0.007 V 27.526688 h 29.16654 v 24.969994 h -0.0411 c 0.0411,0.590132 0.0411,1.180265 0.0411,1.770398 0,6.749644 -1.61034,13.130455 -4.47706,18.7736 l -0.12132,0.2213 c -0.64274,1.254032 -1.34763,2.434297 -2.10969,3.614563 28.54186,13.204221 48.37527,42.120727 48.37527,75.647647 v 97.70386 h -25.00032 v -97.70386 c 0,-28.43702 -20.30869,-52.07922 -47.22517,-57.316647 h -0.0832 c -0.61566,-0.11065 -1.23533,-0.2213 -1.858,-0.33195 h -0.0421 c -2.95796,-0.442599 -6.04127,-0.700782 -9.12457,-0.700782 -3.0833,0 -6.1666,0.258183 -9.12457,0.700782 h -0.0421 c -0.62268,0.11065 -1.24235,0.2213 -1.858,0.33195 h -0.0832 c -26.91648,5.237427 -47.22516,28.879627 -47.22516,57.316647 v 97.70386 h -25.00032 v -97.70386 c 0,-33.52692 19.79229,-62.443426 48.37526,-75.647647 -0.76205,-1.180266 -1.46695,-2.360531 -2.10968,-3.614563 l -0.12133,-0.2213 c -2.86672,-5.643145 -4.47705,-12.023956 -4.47705,-18.7736 0,-0.590133 0,-1.180266 0.0411,-1.770398 h -0.0411 V 27.526688 Z m 29.49944,24.969994 h -33.33276 c 0,9.073291 7.29164,16.523718 16.33298,16.671251 h 0.3329 c 9.2088,0 16.66688,-7.450426 16.66688,-16.671251 z"
   id="path2"
   style="fill:#3e5c77;fill-opacity:1;stroke-width:1.92309"
   sodipodi:nodetypes="cccccccccccscccsccsccccsccccsccscccscccccccsc" />
    <g
   transform="matrix(4.16667,0,0,4.16667,-85.381,-3167.47)"
   id="g3"
   style="fill:#3e5c77;fill-opacity:1">
        <path
   d="M276.068,793.212L256.068,793.212C254.728,793.212 253.416,792.944 252.204,792.436C251.604,792.184 251.028,791.874 250.485,791.509C249.954,791.152 249.455,790.742 248.997,790.283C247.121,788.408 246.068,785.865 246.068,783.212L246.068,770.198C246.068,767.55 247.12,765.01 248.992,763.137C250.865,761.264 253.405,760.212 256.053,760.212L286.068,760.212L286.068,766.212L256.053,766.212C255.519,766.212 254.997,766.319 254.513,766.522C254.274,766.622 254.044,766.746 253.828,766.891C253.617,767.034 253.418,767.197 253.235,767.38C252.488,768.127 252.068,769.141 252.068,770.198L252.068,783.212C252.068,784.273 252.489,785.291 253.239,786.041C253.989,786.791 255.007,787.212 256.068,787.212L276.068,787.212C277.407,787.212 278.719,787.481 279.931,787.989C280.532,788.24 281.108,788.551 281.651,788.916C282.181,789.273 282.68,789.683 283.139,790.141C285.014,792.017 286.068,794.56 286.068,797.212L286.068,810.227C286.068,812.875 285.016,815.415 283.143,817.288C281.27,819.16 278.731,820.212 276.082,820.212L246.068,820.212L246.068,814.212L276.082,814.212C276.616,814.212 277.139,814.105 277.622,813.903C277.861,813.803 278.091,813.679 278.307,813.533C278.519,813.391 278.718,813.228 278.9,813.045C279.648,812.298 280.068,811.284 280.068,810.227L280.068,797.212C280.068,796.151 279.646,795.134 278.896,794.384C278.146,793.634 277.129,793.212 276.068,793.212Z"
   id="path3"
   style="fill:#3e5c77;fill-opacity:1" />
    </g>
    <g
   transform="matrix(4.16667,0,0,4.16667,191.667,250)"
   id="g4"
   style="stroke:none;stroke-opacity:1;opacity:1;fill:#3e5c77;fill-opacity:1">
        <path
   d="M0,-60L0,0L-6,0L-6,-26.29L-40,-26.29L-40,0L-46,0L-46,-60L-40,-60L-40,-32.29L-6,-32.29L-6,-60L0,-60Z"
   style="fill-rule:nonzero;stroke:none;stroke-opacity:1;fill:#3e5c77;fill-opacity:1"
   id="path4" />
    </g>
    <g
   transform="matrix(4.16667,0,0,4.16667,747.498,41.7496)"
   id="g5"
   style="fill:#3e5c77;fill-opacity:1">
        <path
   d="M0,40C0,42.21 1.79,44 4,44L34,44L34,50L4,50C-0.1,50 -3.63,47.53 -5.16,44C-5.7,42.78 -6,41.42 -6,40L-6,0C-6,-1.42 -5.7,-2.78 -5.16,-4C-3.62,-7.53 -0.1,-10 4,-10L34,-10L34,-4L4,-4C1.79,-4 0,-2.21 0,0L0,40Z"
   style="fill-rule:nonzero;fill:#3e5c77;fill-opacity:1"
   id="path5" />
    </g>
    <g
   transform="matrix(0,-4.16667,-4.16667,0,812.99,104.25)"
   id="g6"
   style="fill:#d9984d;fill-opacity:1">
        <path
   d="M-5,-5C-7.761,-5 -10,-2.761 -10,0C-10,2.761 -7.761,5 -5,5C-2.239,5 0,2.761 0,0C0,-2.761 -2.239,-5 -5,-5"
   style="fill-rule:nonzero;fill:#d9984d;fill-opacity:1"
   id="path6" />
    </g>
    <g
   transform="matrix(4.16667,0,0,4.16667,546.761,25.0417)"
   id="g7"
   style="fill:#3e5c77;fill-opacity:1">
        <path
   d="M0,48L-16,48L-16,0L0,0C13.25,0 24,10.75 24,24C24,37.26 13.25,48 0,48M1.04,-5.97C0.7,-5.99 0.35,-6 0,-6L-22,-6L-22,54L0,54C0.35,54 0.7,53.99 1.04,53.97C17.13,53.43 30,40.22 30,24C30,7.78 17.13,-5.43 1.04,-5.97"
   style="fill-rule:nonzero;fill:#3e5c77;fill-opacity:1"
   id="path7" />
    </g>
</svg>
